<svg xmlns="http://www.w3.org/2000/svg" width="40" height="40" viewBox="0 0 24 24" fill="none" stroke="yellow"
     stroke-width="2" stroke-linecap="round" stroke-linejoin="round"
     class="lucide lucide-phone h-6 w-6 mr-4 mt-1 text-team-secondary" data-lov-id="src/components/ContactCTA.tsx:27:16"
     data-lov-name="Phone" data-component-path="src/components/ContactCTA.tsx" data-component-line="27"
     data-component-file="ContactCTA.tsx" data-component-name="Phone"
     data-component-content="%7B%22className%22%3A%22h-6%20w-6%20mr-4%20mt-1%20text-team-secondary%22%7D">
    <path
        d="M22 16.92v3a2 2 0 0 1-2.18 2 19.79 19.79 0 0 1-8.63-3.07 19.5 19.5 0 0 1-6-6 19.79 19.79 0 0 1-3.07-8.67A2 2 0 0 1 4.11 2h3a2 2 0 0 1 2 1.72 12.84 12.84 0 0 0 .7 2.81 2 2 0 0 1-.45 2.11L8.09 9.91a16 16 0 0 0 6 6l1.27-1.27a2 2 0 0 1 2.11-.45 12.84 12.84 0 0 0 2.81.7A2 2 0 0 1 22 16.92z"></path>
</svg>
